<svg width="186" height="34" viewBox="0 0 186 34" fill="none" xmlns="http://www.w3.org/2000/svg">
<path d="M57.7793 29.1665C58.2592 28.1475 58.6875 27.1064 58.6875 25.984V17.2119C58.6875 16.0822 58.2519 15.0485 57.7793 14.0295L61.8551 13.3354V16.2373C62.4606 14.3101 63.5018 13.1139 65.3846 13.1139C68.0281 13.1139 69.7855 15.4546 69.7855 18.9176C69.7855 22.3807 68.0281 24.8764 65.3034 24.8764C63.5904 24.8764 62.4458 23.8796 61.8551 22.1001V25.9766C61.8551 27.1064 62.2909 28.1401 62.7634 29.1591H57.7793V29.1665ZM61.8551 20.7414C62.1357 22.4988 63.3319 23.6433 64.3878 23.6433C65.7317 23.6433 66.5144 21.6497 66.5144 19.0062C66.5144 16.2077 65.6505 14.3248 64.3878 14.3248C63.2803 14.3248 62.2612 15.713 61.8551 17.5295V20.7341V20.7414Z" fill="#000216"/>
<path d="M77.7381 22.5801C77.5683 23.9682 76.5272 24.8764 75.0061 24.8764C73.485 24.8764 71.7129 23.9239 71.7129 21.8195V13.7785H70.502V13.3207C72.3848 12.9293 73.9281 11.4378 74.4449 9.98315H74.8805V13.3207H77.5683V13.7785H74.8805V21.1697C74.8805 22.8385 75.2055 23.9461 76.1359 23.9461C76.7635 23.9461 77.3468 23.4071 77.5683 22.5801H77.7381Z" fill="#000216"/>
<path d="M78.5801 24.6401C79.0748 23.5546 79.4883 22.6021 79.4883 21.4576V17.2119C79.4883 16.06 79.0748 15.1075 78.5801 14.0294L82.656 13.3353V21.4576C82.656 22.6095 83.0695 23.562 83.5642 24.6401H78.5801ZM80.8322 8.82379C81.829 8.82379 82.6486 9.60649 82.6486 10.6255C82.6486 11.6444 81.8216 12.4419 80.8322 12.4419C79.8428 12.4419 79.0305 11.6149 79.0305 10.6255C79.0305 9.63602 79.8354 8.82379 80.8322 8.82379Z" fill="#000216"/>
<path d="M84.6494 24.6401C85.1441 23.5547 85.5576 22.6022 85.5576 21.4577V17.2119C85.5576 16.0601 85.1441 15.1075 84.6494 14.0295L88.7252 13.3354V16.4514C89.4415 14.3691 90.9995 13.1139 92.8233 13.1139C94.4699 13.1139 95.5997 14.155 95.5997 15.713V16.4514C96.3159 14.3691 97.8739 13.1139 99.6977 13.1139C101.344 13.1139 102.474 14.155 102.474 15.713V21.4577C102.474 22.6096 102.888 23.5621 103.382 24.6401H98.3982C98.8929 23.5547 99.3064 22.6022 99.3064 21.4577V16.3628C99.3064 15.2774 98.8486 14.5611 98.0068 14.5611C96.818 14.5611 95.9467 15.8829 95.5997 17.8765V21.4503C95.5997 22.6022 96.0132 23.5547 96.5079 24.6328H91.5238C92.0185 23.5473 92.432 22.5948 92.432 21.4503V16.3554C92.432 15.27 91.9742 14.5538 91.1103 14.5538C89.9437 14.5538 89.0501 15.8755 88.7252 17.8691V21.4429C88.7252 22.5948 89.1388 23.5473 89.6335 24.6254H84.6494V24.6401Z" fill="#000216"/>
<path d="M104.431 24.6401C104.925 23.5546 105.339 22.6021 105.339 21.4576V17.2119C105.339 16.06 104.925 15.1075 104.431 14.0294L108.507 13.3353V21.4576C108.507 22.6095 108.92 23.562 109.415 24.6401H104.431ZM106.683 8.82379C107.68 8.82379 108.499 9.60649 108.499 10.6255C108.499 11.6444 107.672 12.4419 106.683 12.4419C105.693 12.4419 104.881 11.6149 104.881 10.6255C104.881 9.63602 105.686 8.82379 106.683 8.82379Z" fill="#000216"/>
<path d="M116.696 13.7858H114.421C112.147 13.7858 111.106 16.5991 110.693 17.5959H110.479L110.737 13.328H120.572L114.481 24.1823H114.872C118.771 24.1823 119.509 22.1665 120.27 19.5009H120.484L120.114 24.6327H110.582L116.696 13.7784V13.7858Z" fill="#000216"/>
<path d="M131.559 18.9841C131.84 22.3438 129.869 24.8764 126.989 24.8764C124.109 24.8764 121.835 22.3438 121.835 18.7256C121.835 15.4546 123.674 13.1139 126.886 13.1139C129.898 13.1139 131.781 15.1962 131.589 18.2236H125.003C125.069 21.059 126.191 22.9935 128.274 22.9935C129.81 22.9935 131.412 21.9303 131.375 18.9841H131.567H131.559ZM128.613 17.7731C128.68 15.3069 128.119 13.5938 127.078 13.5938C126.103 13.5938 125.039 15.0485 124.995 17.7731H128.613Z" fill="#000216"/>
<path d="M140.53 8.82379C145.662 8.82379 146.12 15.1739 146.12 17.079C146.12 21.7382 143.41 24.6401 139.356 24.6401H132.925C133.42 23.5546 133.833 22.6021 133.833 21.4576V12.0136C133.833 10.8617 133.42 9.90923 132.925 8.83118H140.53V8.82379ZM139.164 24.1823C141.372 24.1823 142.849 21.5167 142.849 16.791C142.849 12.4788 141.638 9.2742 139.186 9.2742C137.584 9.2742 137.001 10.6624 137.001 12.7372V24.1749H139.164V24.1823Z" fill="#000216"/>
<path d="M157.13 18.9841C157.41 22.3438 155.439 24.8764 152.559 24.8764C149.679 24.8764 147.405 22.3438 147.405 18.7256C147.405 15.4546 149.244 13.1139 152.456 13.1139C155.468 13.1139 157.351 15.1962 157.159 18.2236H150.573C150.639 21.059 151.762 22.9935 153.844 22.9935C155.38 22.9935 156.982 21.9303 156.945 18.9841H157.137H157.13ZM154.184 17.7731C154.25 15.3069 153.689 13.5938 152.648 13.5938C151.673 13.5938 150.61 15.0485 150.566 17.7731H154.184Z" fill="#000216"/>
<path d="M159.278 13.6751C160.208 13.328 161.463 13.1139 162.66 13.1139C165.864 13.1139 168.382 14.694 168.382 17.3153V22.1665C168.382 23.3775 168.471 23.9461 168.966 23.9461C169.46 23.9461 169.807 23.407 170.007 22.58H170.184C170.007 24.2488 168.973 24.8764 167.651 24.8764C167.024 24.8764 165.68 24.7214 165.311 23.3184C164.336 24.5737 163.014 24.8764 161.973 24.8764C159.81 24.8764 158.547 23.6433 158.547 21.7161C158.547 18.3564 162.468 16.2964 165.2 16.5843C165.133 14.9377 164.786 13.616 163.361 13.616C161.936 13.616 160.326 14.8934 159.418 17.2341H159.285V13.6824L159.278 13.6751ZM165.215 16.9683C163.088 16.732 161.788 18.7035 161.788 21.0885C161.788 22.6243 162.327 23.8205 163.324 23.8205C163.671 23.8205 164.513 23.6655 165.207 22.7794V16.9757L165.215 16.9683Z" fill="#000216"/>
<path d="M170.894 24.6401C171.388 23.5547 171.802 22.6022 171.802 21.4577V12.6856C171.802 11.5411 171.388 10.5812 170.894 9.50315L174.969 8.83124V21.4651C174.969 22.6169 175.383 23.5695 175.878 24.6475H170.894V24.6401Z" fill="#000216"/>
<path d="M177.199 20.7636H177.31C177.982 22.3881 179.348 24.3375 181.297 24.3375C182.508 24.3375 183.527 23.5769 183.527 22.7573C183.527 20.7858 177.221 20.0253 177.221 16.6508C177.221 14.7236 179.259 13.1213 182.028 13.1213C183.069 13.1213 184.258 13.3355 185.152 13.6825V17.2341H185.041C184.391 15.6097 183.003 13.6382 181.209 13.6382C180.101 13.6382 179.237 14.3544 179.237 15.1298C179.237 17.2785 185.824 17.9282 185.824 21.3691C185.824 23.3849 183.527 24.8765 180.47 24.8765C179.281 24.8765 178.107 24.6402 177.199 24.2931V20.7636Z" fill="#000216"/>
<path d="M41.291 16.7319C41.291 21.3247 44.6507 24.8763 49.0072 24.8763C53.3637 24.8763 56.7455 21.3247 56.7455 16.7319C56.7455 12.1391 53.3637 8.58746 49.0072 8.58746C44.6507 8.58746 41.291 12.1391 41.291 16.7319ZM48.3795 9.16341C48.7118 9.0748 49.0663 9.04528 49.4281 9.06004C51.7835 9.2151 53.5409 11.4303 53.2012 16.9977C52.9502 21.6422 51.4882 23.8057 49.6496 24.3078C49.2952 24.4038 48.9186 24.4333 48.5568 24.4259C46.2604 24.3078 44.4882 22.0704 44.8058 16.503C45.0494 11.8364 46.5336 9.66552 48.3722 9.1708L48.3795 9.16341Z" fill="#000216"/>
<path d="M16.9534 0.00737983C7.59061 0.00737983 0 7.59801 0 16.9608C0 20.2835 0.952453 23.3848 2.60644 25.9987L5.53052 23.5472C4.40817 21.6126 3.77315 19.3605 3.77315 16.9608C3.77315 9.68027 9.67286 3.78055 16.9534 3.78055C22.5134 3.78055 25.7845 7.1476 26.2792 7.64971L4.96934 28.9448C6.74886 30.7243 8.91972 32.1051 11.3416 32.9543C22.2772 36.7865 33.8994 28.6938 33.8994 16.9534C33.8994 7.56849 26.294 0 16.946 0L16.9534 0.00737983ZM13.6158 29.7054L27.793 9.46614C34.6526 19.3901 25.4891 32.8066 13.6158 29.7054Z" fill="#0054D6"/>
</svg>
